<?xml version="1.0" standalone="no"?>
<!DOCTYPE svg PUBLIC "-//W3C//DTD SVG 20010904//EN"
 "http://www.w3.org/TR/2001/REC-SVG-20010904/DTD/svg10.dtd">
<svg version="1.0" xmlns="http://www.w3.org/2000/svg"
 width="303.000000pt" height="303.000000pt" viewBox="0 0 303.000000 303.000000"
 preserveAspectRatio="xMidYMid meet">
<metadata>
Created by potrace 1.14, written by Peter Selinger 2001-2017
</metadata>
<g transform="translate(0.000000,303.000000) scale(0.100000,-0.100000)"
fill="#000000" stroke="none">
<path d="M555 2438 c-34 -20 -46 -37 -52 -73 -7 -42 16 -82 56 -96 28 -10 38
-34 57 -145 3 -16 9 -44 14 -61 8 -33 8 -33 -27 -33 -48 0 -95 -24 -116 -59
-21 -37 -23 -135 -2 -184 16 -39 59 -88 90 -105 19 -10 20 -22 22 -229 2 -120
3 -227 3 -238 0 -11 9 -53 20 -92 66 -243 249 -421 494 -483 75 -19 109 -20
686 -17 l608 2 21 24 c60 69 37 108 -120 212 -22 15 -21 15 39 78 108 112 172
269 172 425 0 283 -162 546 -415 674 -115 59 -214 82 -345 82 -256 0 -482
-104 -631 -290 -34 -42 -118 -182 -119 -198 0 -4 -9 -35 -21 -69 -11 -34 -21
-78 -22 -98 -1 -19 -6 -35 -10 -35 -5 0 -6 -3 -4 -7 3 -5 2 -28 -2 -53 -7 -45
-7 -45 -21 -20 -11 20 -15 79 -16 281 -2 283 -2 287 -70 354 l-35 36 17 82 c9
45 18 89 19 97 2 8 4 23 4 33 1 10 11 22 24 27 82 34 98 132 27 173 -55 33
-121 4 -139 -61 -8 -26 -5 -37 13 -65 13 -18 22 -40 20 -48 -6 -35 -15 -85
-29 -150 -8 -39 -15 -72 -15 -75 0 -2 -11 -4 -24 -4 -24 0 -30 8 -40 60 -38
179 -38 178 -19 206 26 40 27 71 3 108 -27 44 -73 58 -115 34z m68 -73 c7 -14
6 -21 -9 -32 -21 -15 -34 -13 -48 9 -7 12 -6 21 3 31 15 19 40 16 54 -8z m251
9 c20 -19 5 -54 -23 -54 -32 0 -43 55 -13 63 9 3 18 5 19 6 1 0 9 -6 17 -15z"/>
</g>
</svg>
